<?xml version="1.0" encoding="utf-8"?>
<!-- Generator: Adobe Illustrator 27.6.1, SVG Export Plug-In . SVG Version: 6.00 Build 0)  -->
<svg version="1.1" id="レイヤー_1" xmlns="http://www.w3.org/2000/svg" xmlns:xlink="http://www.w3.org/1999/xlink" x="0px"
	 y="0px" viewBox="0 0 349.8 241.1" style="enable-background:new 0 0 349.8 241.1;" xml:space="preserve">
<style type="text/css">
	.st0{fill:#4F8FCC;stroke:#4F8FCC;stroke-width:1.6113;}
	.st1{fill:#4F8FCC;stroke:#231815;stroke-width:1.6113;}
	.st2{fill:#4F8FCC;}
	.st3{fill:#4F8FCC;stroke:#231815;stroke-width:0.2014;stroke-dasharray:0.4028,0.4028;}
	.st4{fill:#FFFFFF;stroke:#231815;stroke-width:0.2014;}
</style>
<line class="st0" x1="0.3" y1="240.3" x2="349.5" y2="240.3"/>
<line class="st0" x1="0.3" y1="139.9" x2="349.5" y2="0.7"/>
<path class="st1" d="M0.3,144.2"/>
<path class="st1" d="M0.3,144.2"/>
<polyline class="st2" points="0.3,144.2 349.5,9.9 349.5,27.6 "/>
<polyline class="st2" points="0.3,236 349.5,231.2 349.5,215.1 "/>
<path class="st3" d="M0.3,153.4"/>
<path class="st3" d="M349.5,43.9"/>
<path class="st3" d="M349.5,43.9"/>
<path class="st3" d="M0.3,153.4"/>
<path class="st3" d="M349.5,196.9"/>
<path class="st3" d="M0.3,226.7"/>
<polyline class="st2" points="22.8,146.3 22.8,224.8 32.2,224 32.2,143.4 "/>
<polyline class="st2" points="100.5,122 100.5,130.9 41.4,149 41.4,139.9 "/>
<polyline class="st2" points="66.4,221.1 66.4,139.9 76.1,138.4 76.1,220.3 "/>
<polyline class="st2" points="187.1,94.8 187.1,210.8 196.5,210 196.5,92.5 "/>
<polyline class="st2" points="242,206.1 242,77.6 233,80.4 233,206.9 "/>
<polyline class="st2" points="196.5,144.6 233,135.3 233,144.6 196.5,153.8 "/>
<polyline class="st2" points="315.3,199.8 315.3,53.6 324.6,51.7 324.6,199.4 "/>
<polyline class="st2" points="265.8,70 301.6,58.9 267.4,69.6 267.4,203.9 258.1,204.3 258.1,72.5 "/>
<path class="st3" d="M301.6,68v-9.1V68z"/>
<polyline class="st2" points="301.6,58.9 301.6,68 267.4,78.1 267.4,69.6 "/>
<polyline class="st2" points="267.4,203.9 301.6,201 301.6,191.7 267.4,194.9 "/>
<path class="st3" d="M267.4,126.8"/>
<polyline class="st2" points="267.4,126.8 295.2,120.4 295.2,130.1 267.4,135.7 "/>
<ellipse class="st2" cx="136.2" cy="163.5" rx="27.2" ry="51.2"/>
<path class="st4" d="M155.7,164.4c0,21.7-8.8,39.2-19.6,39.2c-10.8,0-19.6-17.6-19.6-39.2c0-21.7,8.8-39.2,19.6-39.2
	C146.9,125.2,155.7,142.7,155.7,164.4z"/>
</svg>
