<?xml version="1.0" encoding="UTF-8"?>
<svg id="logo" xmlns="http://www.w3.org/2000/svg" width="200" height="200" viewBox="0 0 200 200">
  <defs>
    <style>
      .cls-1 {
        fill: none;
        stroke: #b7ce0f;
        stroke-miterlimit: 10;
        stroke-width: 6px;
      }

      .cls-2 {
        fill: #f2c433;
      }

      .cls-3 {
        fill: #dd58a1;
      }
    </style>
  </defs>
  <circle class="cls-1" cx="100" cy="100" r="97"/>
  <path class="cls-3" d="M79.468,108.812c-17.232-21.931-24.538-49.34-20.447-64.008,1.192-4.276,3.386-12.429,10.866-17.231,3.22-2.067,7.182-3.448,11.943-3.716,17.81-1.002,27.547,13.512,31.251,33.976,11.497-13.764,36.488-15.789,47.311-5.283,18.016,17.489-7.343,40.199-7.343,40.199,0,0,11.148-25.213-5.962-32.811-18.623-8.744-37.893,9.554-37.893,9.554-1.781-7.611-10.377-27.93-25.91-25.586-17.165,2.591-14.136,30.708-3.816,64.906Z"/>
  <path class="cls-3" d="M63.521,24.152s-12.852,9.717-11.566,28.768c1.159,17.161,8.604,30.839,12.186,36.17-1.647-.16-17.999-18.52-16.432-40.325,1.225-17.049,13.754-24.613,13.754-24.613h2.058Z"/>
  <path class="cls-3" d="M78.58,19.162c-.027-.06,2.205-2.251,2.205-2.251,0,0,7.995-1.316,17.313,3.058,13.325,6.254,16.338,19.943,16.338,19.943l-.783.188s-10.022-22.85-35.073-20.938Z"/>
  <path class="cls-3" d="M150.581,45.496l1.443-1.548s16.644-.539,21.343,13.841c4.507,13.792-9.693,29.498-9.693,29.498,3.191-6.193,18.858-37.083-13.093-41.791Z"/>
  <path class="cls-2" d="M51.264,167.306c-.185.192-2.491-19.847,19.331-39.277,10.252-9.128,24.876-16.929,35.356-21.586,10.791-4.795,18.577-10.756,18.577-10.756,0,0,.098,7.194-19.53,17.557-11.059,5.839-13.496,12.302-11.056,14.286,2.95,2.398,26.754-3.548,47.362-19.065,20.008-15.066,37.103-31.968,37.103-31.968,0,0-7.822,41.93-54.097,65.743-9.937,5.114-31.205,13.067-46.449,15.059-14.968,1.955-23.322,6.614-26.598,10.008Z"/>
  <path class="cls-2" d="M45.754,171.593s-3.404-21.018,10.245-37.285c10.543-12.566,30.875-24.12,45.475-29.564,11.998-4.473,18.072-8.362,17.969-8.283-19.013,14.513-72.103,26.82-70.442,73.482l-3.246,1.65Z"/>
  <path class="cls-2" d="M51.895,173.768s1.858,2.916,2.325,2.458c11.75-11.524,36.69-13.283,44.24-14.476,35.93-5.676,59.095-38.565,58.342-39.385-.558-.608-24.595,32.237-69.951,36.796-23.337,2.346-34.957,14.607-34.957,14.607Z"/>
</svg>